<?xml version="1.0" standalone="no"?>
<!DOCTYPE svg PUBLIC "-//W3C//DTD SVG 20010904//EN"
 "http://www.w3.org/TR/2001/REC-SVG-20010904/DTD/svg10.dtd">
<svg version="1.0" xmlns="http://www.w3.org/2000/svg"
 width="156.000000pt" height="161.000000pt" viewBox="0 0 156.000000 161.000000"
 preserveAspectRatio="xMidYMid meet">

<g transform="translate(0.000000,161.000000) scale(0.100000,-0.100000)"
fill="#000000" stroke="none">
<path d="M444 1594 c-17 -11 -32 -54 -65 -179 l-44 -165 -140 0 c-173 0 -185
-6 -185 -83 0 -29 20 -295 44 -591 42 -520 44 -541 66 -558 21 -17 60 -18 660
-18 600 0 639 1 660 18 22 17 24 38 66 558 51 631 51 627 24 654 -18 18 -33
20 -164 20 l-143 0 -43 158 c-26 99 -50 165 -63 180 -20 22 -21 22 -336 21
-264 0 -320 -3 -337 -15z m626 -199 c15 -55 30 -110 34 -122 l7 -23 -331 0
-332 0 6 23 c3 12 18 68 33 125 l27 102 265 -2 264 -3 27 -100z"/>
</g>
</svg>
