<svg width="40" height="33" viewBox="0 0 40 33" fill="none" xmlns="http://www.w3.org/2000/svg">
<path fill-rule="evenodd" clip-rule="evenodd" d="M39.2123 6.55692C37.2184 2.02459 34 -0.388452 28.663 0.0515417C24 -0.388458 20.5 2.64031 20 6.60032C19.4727 2.57987 15.9874 -0.434816 11 0.0515417C5.50476 -0.433818 0.615461 4.01928 0.0639157 8.8551C-0.404127 12.9588 1.81634 16.3808 2.8834 17.8961C6.43376 22.938 11.7894 26.9031 16.9779 30.7446C17.9967 31.4989 19.009 32.2484 20 33.0004C26.6884 28.3913 32.9574 24.0198 37.4736 17.4387C38.1405 16.467 38.9366 15.1421 39.4498 13.5962C39.928 12.1555 40.5035 9.4919 39.2123 6.55692Z" fill="#F890E7"/>
</svg>
