<svg width="40" height="33" viewBox="0 0 40 33" fill="none" xmlns="http://www.w3.org/2000/svg">
<path fill-rule="evenodd" clip-rule="evenodd" d="M39.2119 6.55685C37.2181 2.02457 33.9996 -0.388448 28.6627 0.0515412C23.9998 -0.388454 20.4998 2.64028 19.9998 6.60025C19.4725 2.57984 15.9872 -0.434811 10.9999 0.0515412C5.5047 -0.433813 0.615454 4.01924 0.063915 8.85501C-0.404122 12.9587 1.81633 16.3806 2.88337 17.8959C6.4337 22.9377 11.7893 26.9029 16.9777 30.7443C17.9965 31.4985 19.0088 32.248 19.9998 33C26.6881 28.3909 32.957 24.0195 37.4733 17.4386C38.1401 16.4668 38.9362 15.1419 39.4493 13.5961C39.9276 12.1554 40.5031 9.4918 39.2119 6.55685Z" fill="#D9D9D9"/>
</svg>
