<svg width="106" height="94" viewBox="0 0 106 94" fill="none" xmlns="http://www.w3.org/2000/svg">
<g filter="url(#filter0_d_2_41)">
<path d="M31.2363 50.4541L20.311 30.0073C14.8993 19.9976 10.5861 11.6561 7.37158 4.98291C6.51709 3.19255 5.8457 2.01253 5.35742 1.44287C4.82845 0.83252 4.19775 0.527344 3.46533 0.527344C2.7736 0.527344 2.16325 0.771484 1.63428 1.25977C1.10531 1.70736 0.84082 2.25667 0.84082 2.90771C0.84082 3.59945 1.26807 4.69808 2.12256 6.20361C2.32601 6.56982 2.52946 6.91569 2.73291 7.24121C3.13981 7.89225 3.66878 8.80778 4.31982 9.98779L49.4858 91.4087L101.61 1.68701H58.8242L31.2363 50.4541Z" fill="#F890E7"/>
</g>
<defs>
<filter id="filter0_d_2_41" x="0.84082" y="0.527344" width="104.369" height="93.3813" filterUnits="userSpaceOnUse" color-interpolation-filters="sRGB">
<feFlood flood-opacity="0" result="BackgroundImageFix"/>
<feColorMatrix in="SourceAlpha" type="matrix" values="0 0 0 0 0 0 0 0 0 0 0 0 0 0 0 0 0 0 127 0" result="hardAlpha"/>
<feOffset dx="2.6" dy="1.5"/>
<feGaussianBlur stdDeviation="0.5"/>
<feComposite in2="hardAlpha" operator="out"/>
<feColorMatrix type="matrix" values="0 0 0 0 0 0 0 0 0 0 0 0 0 0 0 0 0 0 0.75 0"/>
<feBlend mode="normal" in2="BackgroundImageFix" result="effect1_dropShadow_2_41"/>
<feBlend mode="normal" in="SourceGraphic" in2="effect1_dropShadow_2_41" result="shape"/>
</filter>
</defs>
</svg>
