<?xml version="1.0" standalone="no"?>
<!DOCTYPE svg PUBLIC "-//W3C//DTD SVG 20010904//EN"
 "http://www.w3.org/TR/2001/REC-SVG-20010904/DTD/svg10.dtd">
<svg version="1.0" xmlns="http://www.w3.org/2000/svg"
 width="374.000000pt" height="160.000000pt" viewBox="0 0 374.000000 160.000000"
 preserveAspectRatio="xMidYMid meet">

<g transform="translate(0.000000,160.000000) scale(0.100000,-0.100000)"
fill="#000000" stroke="none">
<path d="M200 1203 c0 -9 37 -83 137 -273 80 -152 104 -193 110 -186 3 3 -31
71 -75 153 -44 81 -98 185 -121 231 -38 75 -51 95 -51 75z"/>
<path d="M1117 1173 c-13 -21 -126 -215 -251 -431 -159 -273 -226 -397 -221
-410 6 -16 7 -15 17 3 7 11 121 208 255 438 134 231 243 423 243 428 0 21 -21
7 -43 -28z"/>
<path d="M2160 800 c0 -267 3 -410 10 -410 6 0 10 138 10 394 l0 395 23 3 c52
7 142 -12 208 -44 72 -36 82 -33 19 7 -57 36 -152 65 -215 65 l-55 0 0 -410z"/>
<path d="M1630 780 l0 -410 -180 0 c-154 0 -180 -2 -180 -15 0 -13 25 -15 188
-13 l187 3 3 423 c1 279 -1 422 -8 422 -7 0 -10 -140 -10 -410z"/>
<path d="M3273 1183 l-173 -3 0 -95 c0 -57 4 -95 10 -95 6 0 10 35 10 85 l0
86 167 -3 c153 -3 168 -1 171 15 2 9 0 16 -5 15 -4 -1 -86 -4 -180 -5z"/>
<path d="M2571 1030 c-16 -9 -6 -30 15 -30 15 0 20 25 6 34 -4 2 -14 1 -21 -4z"/>
<path d="M3288 953 l-188 -3 0 -270 c0 -192 3 -270 11 -270 8 0 11 67 9 233
-2 127 -2 242 -1 254 1 22 3 23 183 25 165 3 183 5 186 21 2 9 0 16 -5 15 -4
-2 -92 -4 -195 -5z"/>
<path d="M2580 538 c-96 -132 -226 -194 -395 -186 -85 3 -101 8 -174 44 -44
22 -73 32 -65 23 21 -24 130 -76 184 -88 97 -23 220 -7 312 40 84 43 216 195
191 220 -5 5 -26 -15 -53 -53z"/>
<path d="M3117 373 c-296 -3 -378 -6 -374 -16 3 -9 91 -13 378 -14 206 -1 380
2 388 6 13 8 7 33 -7 29 -4 -2 -177 -4 -385 -5z"/>
</g>
</svg>
